<?xml version="1.0" encoding="iso-8859-1"?>
<!-- Generator: Adobe Illustrator 19.0.0, SVG Export Plug-In . SVG Version: 6.00 Build 0)  -->
<svg version="1.1" id="Capa_1" xmlns="http://www.w3.org/2000/svg" xmlns:xlink="http://www.w3.org/1999/xlink" x="0px" y="0px"
	 viewBox="0 0 511.999 511.999" style="enable-background:new 0 0 511.999 511.999;" xml:space="preserve">
<path style="fill:#F4D44E;" d="M388.741,264.022c-19.156-22.083-31.321-57.241-31.632-58.065
	c-6.676-17.72-13.991-25.284-28.775-19.802c-16.089,5.968-18.467,23.142-13.541,39.039c0.138,0.447,0.611,2.263,1.493,5.108
	c-8.847-11.968-78.865-106.682-76.22-103.104c-7.991-10.809-23.052-14.027-34.406-6.832c-12.644,8.012-15.64,24.895-6.901,36.716
	c-0.477-0.644-13.485-18.243-12.98-17.559c-8.271-11.189-24.048-14.18-35.445-6.199c-11.788,8.254-14.392,24.544-5.891,36.044
	c6.11,8.264,9.017,12.197,13.321,18.02c-8.739-11.822-25.76-13.907-37.128-4.168c-10.207,8.746-11.547,24.087-3.557,34.896
	l24.607,33.287c-8.738-11.821-25.756-13.907-37.123-4.171c-10.209,8.745-11.551,24.087-3.56,34.897
	c12.916,17.472,107.077,144.845,121.046,163.743c12.677,17.147,30.029,28.796,48.995,34.487
	c17.946,5.386,25.036,19.409,27.176,21.685l0.856,1.157c7.12,9.631,20.698,11.667,30.33,4.547l96.35-71.227
	c9.56-7.067,11.58-20.545,4.513-30.104l-12.838-17.367l3.367-50.395c1.296-19.403-4.417-38.669-16.275-54.081
	C391.712,267.927,390.6,266.168,388.741,264.022z"/>
<path style="fill:#E8C842;" d="M220.452,144.342c-6.199-8.385-6.487-19.316-1.62-27.822c-4.536,0.028-9.094,1.262-13.173,3.847
	c-0.006,0.003-0.01,0.007-0.016,0.011c-0.435,0.277-0.857,0.565-1.269,0.863c-0.018,0.013-0.036,0.027-0.054,0.041
	c-0.405,0.294-0.798,0.597-1.18,0.909l-0.002,0.001l0,0c-10.475,8.541-12.501,23.89-4.39,34.877l0.011,0.014l73.798,99.829
	c4.012,5.427,11.718,6.457,17.014,2.275l0,0c5.564-4.393,6.635-12.409,2.42-18.108L220.452,144.342z M219.572,143.152
	L219.572,143.152L219.572,143.152L219.572,143.152z"/>
<g>
	<path style="fill:#DBBC3B;" d="M174.245,167.598c-0.275-0.371-1.552-2.099-1.805-2.441c-1.768-2.392-3.756-5.082-6.305-8.531
		c-6.193-8.377-6.487-19.295-1.636-27.797c-4.92,0.03-9.857,1.476-14.168,4.494c-11.672,8.173-14.334,24.222-6.13,35.702
		c0.126,0.17,86.942,117.627,86.827,117.471c4.209,5.694,12.417,6.503,17.656,1.739l0,0c5.316-4.832,6.089-12.914,1.785-18.667
		C244.282,261.297,180.43,175.872,174.245,167.598z"/>
	<path style="fill:#DBBC3B;" d="M320.769,490.462l-0.856-1.157c-2.14-2.276-9.23-16.3-27.176-21.684
		c-18.965-5.691-36.318-17.34-48.995-34.487c-13.97-18.897-108.13-146.27-121.046-163.743c-6.242-8.444-6.764-19.643-1.838-28.314
		c-5.741,0.069-11.519,2.065-16.298,6.158c-10.209,8.745-11.551,24.087-3.559,34.897c12.916,17.473,107.076,144.845,121.046,163.743
		c12.676,17.147,30.029,28.796,48.995,34.487c17.946,5.386,25.036,19.409,27.176,21.684l0.856,1.157
		c7.12,9.631,20.698,11.667,30.329,4.547l11.762-8.695C333.567,500.094,325.651,497.065,320.769,490.462z"/>
	<path style="fill:#DBBC3B;" d="M189.449,316.013c4.451,6.02,13.212,6.678,18.511,1.389l0,0c4.355-4.347,4.887-11.223,1.249-16.187
		c-1.017-1.384,9.824,13.367-70.437-95.839c-6.243-8.444-6.764-19.644-1.837-28.316c-5.743,0.069-11.522,2.066-16.301,6.161
		c-10.207,8.746-11.547,24.087-3.556,34.896C149.859,262.459,155.148,269.612,189.449,316.013z"/>
</g>
<path style="fill:#E8C842;" d="M316.285,230.303l13.843,18.524c3.524,4.715,10.282,5.51,14.803,1.74l0,0
	c4.072-3.395,5.248-9.157,2.835-13.876c-5.753-11.66-8.67-15.784-11.275-24.224c-0.094-0.575-5.57-15.821,0.777-28.058
	c-0.367-0.008-0.902,0.005-1.059,0.011c-0.748,0.029-1.525,0.111-2.25,0.223c-0.803,0.123-1.622,0.296-2.47,0.517
	c-1.101,0.285-2.177,0.632-3.155,0.995c-16.091,6.472-18.531,22.935-13.541,39.039C314.931,225.641,315.404,227.458,316.285,230.303
	L316.285,230.303L316.285,230.303z"/>
<path style="fill:#F4D44E;" d="M430.269,233.33c-19.156-22.083-31.321-57.241-31.632-58.065
	c-6.676-17.72-13.991-25.284-28.775-19.802c-16.089,5.968-18.467,23.142-13.541,39.039c0.138,0.447,0.611,2.263,1.493,5.108
	c-8.847-11.968-78.865-106.682-76.22-103.104c-7.991-10.809-23.052-14.027-34.406-6.832c-12.644,8.012-15.64,24.895-6.901,36.716
	c-0.477-0.644-13.485-18.243-12.98-17.559c-8.271-11.189-24.048-14.18-35.445-6.199c-11.788,8.254-14.392,24.544-5.891,36.044
	c6.11,8.264,9.017,12.197,13.321,18.02c-8.739-11.822-25.76-13.907-37.128-4.168c-10.207,8.746-11.547,24.087-3.557,34.896
	l24.607,33.287c-8.738-11.821-25.756-13.907-37.124-4.171c-10.209,8.745-11.551,24.087-3.56,34.897
	c12.916,17.472,107.077,144.845,121.046,163.743c12.677,17.147,30.029,28.796,48.995,34.487
	c17.946,5.386,25.036,19.409,27.176,21.685l0.856,1.157c7.12,9.631,20.698,11.667,30.33,4.547l96.35-71.227
	c9.56-7.067,11.58-20.545,4.513-30.104l-12.838-17.367l3.367-50.395c1.296-19.403-4.417-38.669-16.275-54.081
	C433.241,237.236,432.129,235.476,430.269,233.33z"/>
<g>
	<path style="fill:#E8C842;" d="M261.98,113.65c-6.199-8.385-6.487-19.316-1.62-27.822c-9.76,0.06-15.262,5.453-15.694,5.671l0,0
		c-10.475,8.541-12.501,23.89-4.39,34.877l0.011,0.014l73.798,99.829c4.012,5.427,11.718,6.457,17.014,2.275l0,0
		c5.564-4.393,6.635-12.409,2.42-18.108L261.98,113.65z M261.102,112.46L261.102,112.46L261.102,112.46L261.102,112.46z"/>
	<path style="fill:#E8C842;" d="M215.774,136.906c-0.275-0.371-1.552-2.099-1.805-2.441c-1.768-2.392-3.756-5.082-6.305-8.531
		c-6.193-8.377-6.487-19.295-1.636-27.797c-4.92,0.03-9.857,1.476-14.168,4.494c-11.672,8.173-14.334,24.222-6.13,35.702
		l13.56,18.363l73.266,99.109c4.209,5.694,12.417,6.503,17.656,1.739l0,0c5.316-4.832,6.089-12.914,1.785-18.667
		C285.81,230.606,221.958,145.181,215.774,136.906z"/>
	<path style="fill:#E8C842;" d="M362.298,459.77l-0.856-1.157c-2.14-2.276-9.23-16.3-27.176-21.684
		c-18.965-5.691-36.318-17.34-48.995-34.487c-13.97-18.897-108.13-146.27-121.046-163.743c-6.242-8.444-6.764-19.643-1.838-28.314
		c-20.805,0.25-32.426,24.052-19.857,41.055c12.916,17.473,107.076,144.845,121.046,163.743
		c12.676,17.147,30.029,28.796,48.995,34.487c17.946,5.386,25.036,19.409,27.176,21.684l0.856,1.157
		c7.12,9.631,20.698,11.667,30.329,4.547l11.762-8.695C375.096,469.402,367.179,466.373,362.298,459.77z"/>
	<path style="fill:#E8C842;" d="M230.978,285.321c4.451,6.02,13.212,6.678,18.511,1.389l0,0c4.356-4.348,4.887-11.223,1.249-16.187
		c-1.017-1.384,9.824,13.367-70.437-95.839c-6.243-8.444-6.764-19.644-1.837-28.316c-20.819,0.25-32.417,24.067-19.858,41.057
		C158.708,187.56,196.676,238.92,230.978,285.321z"/>
</g>
<g>
	<path style="fill:#EAE9E8;" d="M163.173,61.259l-27.28-40.974c-4.678-7.027-1.573-16.578,6.342-19.511l0,0
		c7.426-2.751,15.482,2.124,16.487,9.98l6.369,49.789C165.232,61.645,163.789,62.184,163.173,61.259z"/>
	<path style="fill:#EAE9E8;" d="M124.349,87.108L97.081,46.152c-4.684-7.036-14.709-7.857-20.475-1.677l0,0
		c-5.396,5.782-4.006,15.081,2.845,19.034l43.498,25.092C123.912,89.157,124.966,88.033,124.349,87.108z"/>
	<path style="fill:#EAE9E8;" d="M99.948,121.943l-47.837-14c-7.798-2.282-15.685,3.311-16.107,11.425l0,0
		c-0.43,8.226,6.908,14.711,15.018,13.273l48.814-8.653C100.931,123.793,101.015,122.255,99.948,121.943z"/>
	<path style="fill:#EAE9E8;" d="M315.671,61.259l27.424-41.189c4.605-6.917,1.549-16.32-6.243-19.207l0,0
		c-7.551-2.797-15.741,2.16-16.762,10.148l-6.336,49.533C313.612,61.645,315.055,62.184,315.671,61.259z"/>
	<path style="fill:#EAE9E8;" d="M354.495,87.108L382.464,45.1c4.327-6.499,13.586-7.257,18.913-1.549l0,0
		c5.836,6.255,4.333,16.315-3.077,20.589l-42.404,24.462C354.933,89.157,353.88,88.033,354.495,87.108z"/>
	<path style="fill:#EAE9E8;" d="M378.897,121.943l46.828-13.706c8.313-2.433,16.72,3.53,17.172,12.18l0,0
		c0.402,7.689-6.458,13.75-14.038,12.406l-49.849-8.836C377.915,123.793,377.83,122.255,378.897,121.943z"/>
</g>
<path style="fill:#E8C842;" d="M357.813,199.612l13.843,18.524c3.524,4.715,10.282,5.51,14.803,1.74l0,0
	c4.072-3.395,5.248-9.157,2.835-13.876l-6.951-13.587c-1.746-3.414-3.193-6.974-4.323-10.638l-0.005-0.014
	c-3.052-9.848-3.295-20.183,0.783-28.044c-0.447-0.01-1.118,0-1.889,0.065c-0.09,0.008-0.18,0.015-0.272,0.024
	c-0.257,0.025-0.519,0.057-0.782,0.092c-0.121,0.017-0.244,0.034-0.368,0.053c-0.243,0.037-0.489,0.079-0.737,0.125
	c-0.153,0.029-0.309,0.061-0.464,0.093c-0.227,0.047-0.455,0.095-0.686,0.15c-0.192,0.046-0.389,0.097-0.583,0.148
	c-0.204,0.053-0.407,0.104-0.614,0.163c-0.249,0.071-0.504,0.15-0.758,0.229c-0.162,0.05-0.322,0.096-0.486,0.15
	c-16.997,5.584-20.024,22.753-14.838,39.491C356.46,194.95,356.932,196.767,357.813,199.612
	C357.813,199.611,357.813,199.611,357.813,199.612L357.813,199.612z"/>
<g>
</g>
<g>
</g>
<g>
</g>
<g>
</g>
<g>
</g>
<g>
</g>
<g>
</g>
<g>
</g>
<g>
</g>
<g>
</g>
<g>
</g>
<g>
</g>
<g>
</g>
<g>
</g>
<g>
</g>
</svg>
