<?xml version="1.0" encoding="iso-8859-1"?>
<!-- Generator: Adobe Illustrator 19.0.0, SVG Export Plug-In . SVG Version: 6.00 Build 0)  -->
<svg version="1.1" id="Capa_1" xmlns="http://www.w3.org/2000/svg" xmlns:xlink="http://www.w3.org/1999/xlink" x="0px" y="0px"
	 viewBox="0 0 511.995 511.995" style="enable-background:new 0 0 511.995 511.995;" xml:space="preserve">
<path style="fill:#F4D44E;" d="M385.467,265.048c-18.683-21.537-30.546-55.823-30.849-56.628
	c-6.511-17.28-13.644-24.659-28.062-19.311c-15.691,5.82-18.011,22.57-13.206,38.073c0.135,0.435,0.596,2.207,1.456,4.981
	c-8.628-11.672-76.913-104.041-74.333-100.552c-7.793-10.542-22.481-13.68-33.555-6.662c-12.331,7.814-15.253,24.278-6.73,35.807
	c-0.464-0.629-13.152-17.791-12.659-17.124c-8.067-10.912-23.452-13.829-34.569-6.046c-11.496,8.05-14.036,23.936-5.745,35.152
	c5.958,8.06,8.793,11.895,12.991,17.574c-8.523-11.53-25.123-13.563-36.208-4.064c-9.954,8.529-11.261,23.49-3.469,34.032
	l23.998,32.463c-8.522-11.528-25.118-13.564-36.205-4.067c-9.957,8.528-11.265,23.491-3.472,34.033
	c12.598,17.04,104.426,141.261,118.05,159.69c12.363,16.723,29.285,28.083,47.782,33.634c17.502,5.252,24.416,18.929,26.503,21.148
	l0.834,1.128c6.944,9.393,20.187,11.378,29.579,4.435l93.966-69.464c9.322-6.892,11.293-20.036,4.402-29.359l-12.52-16.937
	l3.282-49.148c1.264-18.922-4.307-37.711-15.872-52.743C388.366,268.855,387.282,267.14,385.467,265.048z"/>
<path style="fill:#E8C842;" d="M221.345,148.33c-6.045-8.178-6.326-18.838-1.58-27.133c-4.424,0.027-8.869,1.231-12.846,3.752
	c-0.005,0.003-0.01,0.007-0.015,0.01c-0.424,0.27-0.836,0.551-1.238,0.841c-0.018,0.013-0.035,0.027-0.052,0.039
	c-0.395,0.286-0.778,0.582-1.152,0.887l-0.001,0.001l0,0c-10.217,8.33-12.191,23.298-4.282,34.015l0.01,0.014l71.971,97.359
	c3.912,5.292,11.428,6.297,16.593,2.218l0,0c5.425-4.284,6.47-12.102,2.36-17.66L221.345,148.33z M220.488,147.169L220.488,147.169
	L220.488,147.169L220.488,147.169z"/>
<g>
	<path style="fill:#DBBC3B;" d="M176.282,171.01c-0.268-0.362-1.513-2.047-1.76-2.38c-1.724-2.333-3.663-4.956-6.15-8.32
		c-6.04-8.171-6.326-18.817-1.595-27.109c-4.799,0.029-9.613,1.44-13.817,4.383c-11.383,7.97-13.979,23.622-5.978,34.818
		c0.123,0.166,84.79,114.716,84.678,114.563c4.105,5.553,12.11,6.341,17.219,1.697l0,0c5.184-4.713,5.938-12.595,1.741-18.205
		C244.585,262.391,182.313,179.08,176.282,171.01z"/>
	<path style="fill:#DBBC3B;" d="M319.179,485.882l-0.834-1.128c-2.087-2.219-9.002-15.896-26.504-21.148
		c-18.495-5.55-35.419-16.911-47.782-33.634c-13.624-18.43-105.454-142.649-118.05-159.69c-6.088-8.235-6.596-19.157-1.791-27.614
		c-5.6,0.068-11.233,2.014-15.894,6.006c-9.957,8.528-11.265,23.491-3.471,34.033c12.597,17.04,104.426,141.26,118.05,159.689
		c12.363,16.723,29.285,28.083,47.782,33.634c17.502,5.252,24.416,18.929,26.504,21.148l0.834,1.128
		c6.944,9.393,20.187,11.378,29.579,4.435l11.471-8.48C331.66,495.276,323.94,492.321,319.179,485.882z"/>
	<path style="fill:#DBBC3B;" d="M191.11,315.752c4.341,5.872,12.885,6.512,18.053,1.355l0,0c4.248-4.239,4.765-10.945,1.218-15.786
		c-0.991-1.349,9.581,13.036-68.693-93.467c-6.088-8.236-6.597-19.158-1.791-27.615c-5.601,0.068-11.236,2.015-15.898,6.009
		c-9.954,8.529-11.261,23.49-3.468,34.032C152.5,263.523,157.656,270.499,191.11,315.752z"/>
</g>
<path style="fill:#E8C842;" d="M314.806,232.163l13.5,18.066c3.437,4.598,10.027,5.374,14.437,1.698l0,0
	c3.97-3.311,5.119-8.93,2.765-13.532c-5.611-11.371-8.455-15.393-10.996-23.624c-0.092-0.561-5.432-15.43,0.759-27.363
	c-0.358-0.008-0.88,0.005-1.033,0.011c-0.73,0.028-1.487,0.109-2.195,0.218c-0.783,0.12-1.582,0.288-2.409,0.504
	c-1.073,0.278-2.124,0.617-3.078,0.97c-15.692,6.312-18.073,22.367-13.206,38.073C313.485,227.617,313.947,229.389,314.806,232.163
	L314.806,232.163L314.806,232.163z"/>
<path style="fill:#F4D44E;" d="M425.968,235.116c-18.683-21.537-30.546-55.823-30.849-56.628
	c-6.511-17.28-13.644-24.659-28.062-19.311c-15.691,5.82-18.011,22.57-13.206,38.073c0.135,0.435,0.596,2.207,1.456,4.981
	c-8.628-11.672-76.913-104.041-74.333-100.552c-7.793-10.542-22.481-13.68-33.555-6.662c-12.331,7.814-15.253,24.278-6.73,35.807
	c-0.464-0.629-13.152-17.791-12.659-17.124c-8.067-10.912-23.452-13.829-34.569-6.046c-11.496,8.05-14.036,23.936-5.745,35.152
	c5.958,8.06,8.793,11.895,12.991,17.574c-8.523-11.53-25.122-13.563-36.208-4.064c-9.954,8.529-11.261,23.49-3.469,34.032
	l23.998,32.463c-8.522-11.528-25.118-13.564-36.205-4.067c-9.957,8.528-11.265,23.491-3.472,34.033
	c12.597,17.041,104.426,141.26,118.05,159.689c12.363,16.723,29.285,28.083,47.782,33.634c17.502,5.252,24.416,18.928,26.503,21.148
	l0.834,1.128c6.944,9.393,20.187,11.378,29.579,4.435l93.966-69.464c9.322-6.892,11.293-20.036,4.402-29.359l-12.52-16.936
	l3.282-49.148c1.264-18.922-4.307-37.711-15.872-52.743C428.867,238.924,427.783,237.208,425.968,235.116z"/>
<g>
	<path style="fill:#E8C842;" d="M261.846,118.398c-6.045-8.178-6.326-18.838-1.58-27.133c-9.519,0.058-14.885,5.317-15.306,5.53l0,0
		c-10.217,8.33-12.191,23.298-4.282,34.015l0.01,0.014l71.971,97.359c3.912,5.292,11.428,6.297,16.593,2.218l0,0
		c5.425-4.284,6.47-12.102,2.36-17.66L261.846,118.398z M260.988,117.237L260.988,117.237L260.988,117.237L260.988,117.237z"/>
	<path style="fill:#E8C842;" d="M216.782,141.078c-0.268-0.362-1.513-2.047-1.76-2.38c-1.724-2.333-3.663-4.956-6.15-8.32
		c-6.04-8.171-6.326-18.817-1.595-27.109c-4.799,0.029-9.613,1.44-13.817,4.383c-11.384,7.97-13.979,23.622-5.978,34.818
		l13.225,17.908l71.452,96.656c4.104,5.553,12.11,6.341,17.219,1.697l0,0c5.184-4.713,5.938-12.594,1.741-18.205
		C285.085,232.458,222.814,149.148,216.782,141.078z"/>
	<path style="fill:#E8C842;" d="M359.68,455.949l-0.834-1.128c-2.086-2.219-9.002-15.896-26.504-21.148
		c-18.495-5.55-35.419-16.911-47.782-33.634C270.936,381.61,179.106,257.39,166.51,240.35c-6.088-8.235-6.596-19.157-1.791-27.614
		c-20.29,0.245-31.624,23.457-19.366,40.039c12.597,17.041,104.426,141.26,118.05,159.689
		c12.363,16.723,29.285,28.083,47.782,33.634c17.502,5.252,24.416,18.928,26.504,21.148l0.834,1.128
		c6.944,9.393,20.187,11.378,29.579,4.435l11.471-8.48C372.161,465.344,364.44,462.389,359.68,455.949z"/>
	<path style="fill:#E8C842;" d="M231.609,285.819c4.341,5.872,12.885,6.512,18.053,1.355l0,0c4.248-4.24,4.765-10.945,1.218-15.786
		c-0.991-1.349,9.58,13.036-68.693-93.467c-6.088-8.236-6.597-19.158-1.791-27.615c-20.303,0.245-31.615,23.471-19.366,40.04
		C161.129,190.478,198.157,240.568,231.609,285.819z"/>
</g>
<g>
	<path style="fill:#EAE9E8;" d="M165.484,67.303l-26.605-39.961c-4.563-6.853-1.534-16.168,6.185-19.028l0,0
		c7.243-2.684,15.099,2.072,16.079,9.734l6.212,48.556C167.492,67.68,166.085,68.206,165.484,67.303z"/>
	<path style="fill:#EAE9E8;" d="M127.621,92.512L101.028,52.57c-4.569-6.862-14.344-7.663-19.968-1.635l0,0
		c-5.262,5.639-3.907,14.708,2.775,18.563l42.422,24.472C127.194,94.51,128.222,93.415,127.621,92.512z"/>
	<path style="fill:#EAE9E8;" d="M103.824,126.486L57.17,112.831c-7.605-2.226-15.296,3.229-15.71,11.143l0,0
		c-0.419,8.022,6.737,14.347,14.647,12.944l47.606-8.439C104.782,128.29,104.864,126.79,103.824,126.486z"/>
	<path style="fill:#EAE9E8;" d="M314.207,67.303l26.745-40.17c4.491-6.745,1.51-15.916-6.088-18.731l0,0
		c-7.364-2.728-15.351,2.107-16.347,9.896l-6.18,48.307C312.2,67.68,313.607,68.206,314.207,67.303z"/>
	<path style="fill:#EAE9E8;" d="M352.071,92.512l27.276-40.968c4.22-6.338,13.249-7.078,18.445-1.51l0,0
		c5.692,6.1,4.226,15.91-3.001,20.08l-41.354,23.855C352.498,94.51,351.47,93.415,352.071,92.512z"/>
	<path style="fill:#EAE9E8;" d="M375.868,126.486l45.669-13.366c8.107-2.373,16.306,3.443,16.746,11.878l0,0
		c0.392,7.499-6.298,13.41-13.691,12.1l-48.616-8.618C374.91,128.29,374.827,126.79,375.868,126.486z"/>
</g>
<path style="fill:#E8C842;" d="M355.307,202.231l13.5,18.066c3.437,4.598,10.027,5.374,14.437,1.698l0,0
	c3.97-3.311,5.119-8.93,2.765-13.532l-6.779-13.25c-1.703-3.33-3.114-6.8-4.217-10.374l-0.004-0.013
	c-2.976-9.604-3.214-19.684,0.763-27.35c-0.435-0.009-1.09,0-1.843,0.063c-0.088,0.007-0.176,0.014-0.265,0.023
	c-0.252,0.024-0.506,0.055-0.763,0.091c-0.119,0.016-0.238,0.033-0.358,0.052c-0.238,0.036-0.478,0.077-0.719,0.122
	c-0.149,0.028-0.3,0.059-0.452,0.091c-0.222,0.046-0.443,0.093-0.669,0.146c-0.188,0.044-0.379,0.095-0.568,0.144
	c-0.199,0.051-0.397,0.102-0.599,0.159c-0.244,0.07-0.492,0.147-0.74,0.224c-0.158,0.049-0.314,0.094-0.475,0.146
	c-16.577,5.445-19.528,22.191-14.47,38.514C353.986,197.685,354.447,199.456,355.307,202.231
	C355.307,202.231,355.307,202.23,355.307,202.231L355.307,202.231z"/>
<path d="M174.851,65.646l-6.212-48.555C167.04,4.579,154.215-3.135,142.438,1.23c-12.284,4.553-17.121,19.378-9.849,30.301
	l26.606,39.959C164.202,79.012,175.994,74.63,174.851,65.646z M145.169,23.155c-1.213-1.823-0.907-3.594-0.617-4.487
	c1.637-5.044,8.482-4.471,9.097,0.34l2.674,20.9L145.169,23.155z"/>
<path d="M70.495,62.001c0.886,5.928,4.371,11.047,9.563,14.042c44.36,25.124,42.628,25.628,46.719,25.628
	c6.73,0,10.986-7.566,7.132-13.348l-26.592-39.942C95.277,30.301,67.422,41.433,70.495,62.001z M87.61,62.953
	c-1.613-0.931-2.051-2.395-2.169-3.185c-0.754-5.041,6.356-7.429,9.298-3.01l11.142,16.733L87.61,62.953z"/>
<path d="M40.659,139.642c4.587,4.053,10.691,5.793,16.768,4.716l47.605-8.44c8.908-1.577,9.595-14.145,0.913-16.686l-46.652-13.654
	C39.088,99.674,24.754,125.589,40.659,139.642z M55.049,120.083l19.894,5.822l-20.153,3.573c-3.121,0.554-5.948-1.936-5.782-5.11
	C49.164,121.35,52.091,119.219,55.049,120.083z"/>
<path d="M337.488,1.315c-11.916-4.413-24.852,3.398-26.467,16.023l-6.18,48.305c-1.149,8.976,10.642,13.377,15.655,5.846
	l26.746-40.169C354.431,20.523,349.673,5.831,337.488,1.315z M334.663,22.946L323.37,39.907l2.642-20.649
	c0.632-4.935,7.622-5.623,9.245-0.628C335.536,19.489,335.83,21.193,334.663,22.946z"/>
<path d="M357.211,100.514l41.355-23.856c11.43-6.595,13.767-22.115,4.75-31.779c-8.513-9.128-23.329-7.931-30.259,2.477
	l-27.276,40.969c-2.219,3.335-1.857,7.703,0.885,10.627C349.405,101.873,353.744,102.516,357.211,100.514z M385.637,55.731
	c1.492-2.242,4.727-2.582,6.63-0.543c2.383,2.555,1.761,6.641-1.252,8.379l-17.203,9.924L385.637,55.731z"/>
<path d="M374.658,135.919l48.616,8.619c5.854,1.037,11.703-0.649,16.087-4.525c15.539-13.73,1.003-40.277-19.946-34.147
	l-45.669,13.367c-3.845,1.125-6.377,4.703-6.159,8.704C367.805,131.938,370.715,135.221,374.658,135.919z M423.659,120.37
	c2.239-0.655,3.94,0.22,4.756,0.797c4.467,3.174,1.958,9.274-2.502,8.49l-21.164-3.752L423.659,120.37z"/>
<path d="M413.289,446.966c1.561,0,3.134-0.482,4.485-1.48l48.784-36.064c12.686-9.379,15.368-27.236,5.986-39.926l-10.873-14.709
	l3.098-46.381c1.004-15.035-1.958-30.097-8.567-43.562c-1.838-3.746-6.362-5.293-10.112-3.454
	c-3.746,1.838-5.292,6.365-3.454,10.112c5.442,11.089,7.882,23.502,7.053,35.896c-2.764,50.511-4.735,50.201-1.821,54.143
	l12.521,16.939c4.414,5.968,3.155,14.376-2.817,18.789l-48.784,36.064c-3.356,2.481-4.065,7.213-1.585,10.567
	C408.689,445.906,410.974,446.966,413.289,446.966z"/>
<path d="M369.684,166.262c6.939-2.574,11.537-3.229,18.345,14.839c7.431,19.981,18.435,43.063,32.227,58.963
	c1.152,1.331,1.18,1.479,2.947,3.768c2.527,3.32,7.267,3.965,10.59,1.44c3.321-2.527,3.965-7.268,1.44-10.59
	c-2.311-3.952-18.645-18.629-32.922-58.529c-7.319-19.424-17.588-31.589-37.882-24.062c-10.682,3.962-17.462,12.312-19.645,23.194
	l-57.735-78.1c-15.639-21.155-48.043-16.378-56.804,7.661c-19.417-18.374-51.658-7.446-54.729,19.555
	c-27.488-7.99-50.545,20.943-37.762,45.799c-25.479,1.405-39.557,30.858-23.914,52.035l7.698,10.422
	c-25.316,1.79-38.835,31.106-23.401,52.001l19.303,26.132c2.48,3.357,7.21,4.066,10.566,1.589c3.357-2.48,4.068-7.211,1.589-10.567
	l-19.303-26.132c-9.07-12.28,0.214-29.296,15.176-27.922c4.48,0.409,8.523,2.473,11.454,5.833c0.006,0.011,0.013,0.021,0.019,0.032
	c1.649,2.969-5.226-6.586,120.385,163.33c12.97,17.545,30.843,30.125,51.686,36.379c7.454,2.238,14.22,7.068,19.051,13.604
	c4.257,5.757,6.811,10.01,12.859,13.588l-18.536,13.691c-2.92,2.158-6.507,3.045-10.096,2.509
	c-7.91-1.19-10.052-7.703-13.293-11.297c-6.755-9.146-16.292-15.931-26.852-19.105c-17.689-5.315-32.857-16.004-43.865-30.905
	c-1.682-2.278-69.681-94.339-77.734-105.241c-2.48-3.357-7.21-4.066-10.566-1.589c-3.357,2.48-4.068,7.211-1.588,10.567
	c17.019,23.041,61.105,82.729,77.732,105.24c12.963,17.55,30.832,30.137,51.672,36.4c15.028,4.517,20.841,16.74,23.426,19.541
	c9.426,12.761,27.375,15.464,40.145,6.035l30.609-22.609c9.285-2.126,12.816-7.162,27.444-17.319
	c3.356-2.481,4.065-7.213,1.585-10.568c-2.481-3.355-7.212-4.063-10.567-1.584c-16.201,11.442-17.414,14.246-23.184,14.982
	c-4.071,0.514-8.022-0.836-10.827-3.38c-4.29-3.873-11.659-20.611-33.067-27.036c-17.704-5.312-32.871-16.001-43.877-30.887
	C141.035,234.222,149.2,246.853,148.111,240.449c-2.982-17.951,20.031-27.769,30.841-13.15l54.822,74.159
	c1.483,2.005,3.767,3.065,6.082,3.065c6.105,0,9.789-7.018,6.07-12.047c-85.119-115.143-80.327-107.864-81.638-112.308
	c-1.107-3.72-1-7.799,0.445-11.502c2.527-6.471,9.176-11.302,17.146-10.751c3.329,0.231,6.303,1.268,8.966,3.197
	c3.938,2.852-0.323-1.426,82.908,110.791c1.483,2.005,3.767,3.065,6.082,3.065c6.105,0,9.789-7.018,6.07-12.047
	c-5.742-7.768,15.437,20.882-79.123-107.034c-14.173-19.171-13.208-17.81-13.858-18.873c-2.14-3.509-2.971-7.647-2.297-11.774
	c2.496-15.299,22.084-19.546,31.326-7.047c10.526,14.239,78.401,106.055,91.781,124.155c1.483,2.005,3.767,3.065,6.082,3.065
	c6.105,0,9.789-7.018,6.07-12.047c-8.097-10.953-70.653-95.574-79.124-107.035c-3.012-4.361-3.961-8.814-3.092-13.466
	c2.797-14.98,22.048-19.109,31.226-6.693l74.333,100.552c5.029,6.805,15.804,1.371,13.294-6.729
	c-1.038-3.348-1.199-4.164-1.456-4.98C359.402,189.636,355.1,171.67,369.684,166.262z M135.007,225.457l-9.009-12.198
	c-5.536-7.494-4.517-17.948,2.319-23.801c7.32-6.269,18.082-5.347,24.242,1.63c1.833,3.33,3.333,4.881,10.091,14.158
	C150.022,206.139,139.403,214.391,135.007,225.457z M155.34,154.997c-1.859,2.355-3.364,4.913-4.479,7.613
	c-1.41-3.087-1.878-6.521-1.317-9.956c2.242-13.705,18.477-18.918,28.755-9.836C177.434,142.88,161.501,147.223,155.34,154.997z"/>
<g>
</g>
<g>
</g>
<g>
</g>
<g>
</g>
<g>
</g>
<g>
</g>
<g>
</g>
<g>
</g>
<g>
</g>
<g>
</g>
<g>
</g>
<g>
</g>
<g>
</g>
<g>
</g>
<g>
</g>
</svg>
